# xmcd
#
# Track frame offsets: 
#        150
#        13313
#        25720
#        42488
#        54664
#        67489
#        81048
#        94353
#        107972
#        119077
#        130168
#        143155
#        154135
#        163734
#        178468
#        198070
#
# Disc length: 2906 seconds
#
# Revision: 2
# Processed by: cddbd v1.5.2PL0 Copyright (c) Steve Scherf et al.
# Submitted via: ExactAudioCopy v1.3
#
DISCID=f20b5810
DTITLE=Frank Sinatra - Frank Sinatra ‎– The Platinum Collection [CD 3)
DYEAR=2004
DGENRE=Swing
TTITLE0=You Make Me Feel So Young
TTITLE1=Nice 'N' Easy
TTITLE2=Here's That Rainy Day
TTITLE3=Pennies From Heaven
TTITLE4=April In Paris
TTITLE5=From Here To Eternity
TTITLE6=Someone To Watch Over Me
TTITLE7=In The Wee Small Hours Of The Morning
TTITLE8=I Thought About You
TTITLE9=Too Marvelous For Words
TTITLE10=Autumn Leaves
TTITLE11=Dancing In The Dark
TTITLE12=All Of Me
TTITLE13=As Time Goes By
TTITLE14=September Song
TTITLE15=One For My Baby (And One More For The Road)
EXTD=
EXTT0=
EXTT1=
EXTT2=
EXTT3=
EXTT4=
EXTT5=
EXTT6=
EXTT7=
EXTT8=
EXTT9=
EXTT10=
EXTT11=
EXTT12=
EXTT13=
EXTT14=
EXTT15=
PLAYORDER=
